<svg xmlns="http://www.w3.org/2000/svg" viewBox="0 0 121.13 121.13"><defs><style>.cls-1{fill:#1769ff;}.cls-2{fill:#fff;}</style></defs><title>Asset 3</title><g id="Layer_2" data-name="Layer 2"><g id="Layer_1-2" data-name="Layer 1"><rect class="cls-1" width="121.13" height="121.13" rx="31.08"/><path class="cls-2" d="M54.51,58.7l.43.15a11.36,11.36,0,0,1,3.75,2A10,10,0,0,1,62,66a14.23,14.23,0,0,1-.9,10,5.51,5.51,0,0,1-.82,1.25c-3.12,3.52-7,4.82-11.27,5.25-.62.06-1.24.08-1.86.08H25.53V38.52q10.28,0,20.57,0a26.45,26.45,0,0,1,6.45.69,11.72,11.72,0,0,1,6,3.46,2.81,2.81,0,0,1,.46.68,13.56,13.56,0,0,1,1.18,8.29,8.53,8.53,0,0,1-3.53,5.62c-.56.42-1.18.76-1.77,1.13l-.36.21ZM35.19,69v6.08h10c.55,0,1.09,0,1.63-.06A7.06,7.06,0,0,0,52,72.63a8.25,8.25,0,0,0-.28-7.48,7.55,7.55,0,0,0-3.33-1.87A10.49,10.49,0,0,0,45.8,63H35.19Zm5.53-12.66h4.63a6.89,6.89,0,0,0,4.8-1.87,7.89,7.89,0,0,0,.3-6.39,7.81,7.81,0,0,0-5.53-2c-3.09,0-6.18,0-9.27,0h-.07c-.33,0-.37.05-.39.39a1.75,1.75,0,0,1-.06.6,6.6,6.6,0,0,0-.6,4.17c1.3,5.12,0,5.16,1.25,5.16Z"/><path class="cls-2" d="M94.91,72a2.71,2.71,0,0,1,0,.27,17.4,17.4,0,0,1-2.72,5.23,13.51,13.51,0,0,1-8.25,4.76,14.23,14.23,0,0,1-1.72.24c-4.57.35-9-.33-13-3.44a9.07,9.07,0,0,1-1.26-1.22A17.24,17.24,0,0,1,63.85,68a20.41,20.41,0,0,1,.47-6.88,15.71,15.71,0,0,1,9-10.77,10.27,10.27,0,0,1,1.9-.68,18,18,0,0,1,11.11.54,8.88,8.88,0,0,1,1.57.79,15.88,15.88,0,0,1,7,9.94,22.37,22.37,0,0,1,.67,5.82c0,.31,0,.62,0,.94s-.11.3-.31.31h-22c-.86,0-.8,0-.73.79a9.43,9.43,0,0,0,2.35,5.85,10.24,10.24,0,0,0,7.91,1.12,7.23,7.23,0,0,0,3.59-2.29,5.3,5.3,0,0,0,.74-1.14.57.57,0,0,1,.59-.38c1.9,0,3.81,0,5.72,0h1A2.27,2.27,0,0,1,94.91,72Zm-8.17-9.65a2.15,2.15,0,0,0,0-.4c-.14-.54-.27-1.09-.44-1.62a8.21,8.21,0,0,0-2.4-3.76,8.64,8.64,0,0,0-5.49-.89A6.81,6.81,0,0,0,73,59.85a1.36,1.36,0,0,0-.12.39c-.1.61-.27,1.25-.33,1.88,0,.23,0,.28.25.3H86.29C86.42,62.43,86.56,62.4,86.74,62.38Z"/><path class="cls-2" d="M79.91,45.67H71V41.39c0-.12,0-.24,0-.35a.25.25,0,0,1,.27-.27H88.83c0,1.43,0,2.86,0,4.29a2.43,2.43,0,0,1,0,.27c0,.28-.07.33-.36.35H79.91Z"/></g></g></svg>