<svg xmlns="http://www.w3.org/2000/svg" viewBox="0 0 59.79 60"><defs><style>.cls-1{fill:#63498a;}.cls-2{fill:#644a8b;}.cls-3{fill:#654c8c;}</style></defs><title>Asset 24</title><g id="Layer_2" data-name="Layer 2"><g id="Layer_1-2" data-name="Layer 1"><path class="cls-1" d="M47.22,59.8H40a8.23,8.23,0,0,1-2.62.19c-1-.5-2-.18-2.93-.19H11.74l-2.87,0a12.58,12.58,0,0,1-5.7-2.69L3,56.85A12.29,12.29,0,0,1,.32,51.14a3.75,3.75,0,0,1-.08-2.85V23a4.92,4.92,0,0,1,0-2.87l0-2.87V11.5l0-2.6A12.63,12.63,0,0,1,2.73,3.22l.46-.47A12.37,12.37,0,0,1,8.88.08L11.74,0H48.27l3.11.12A12.65,12.65,0,0,1,56.84,2.7l.46.5a20.1,20.1,0,0,1,1.86,3.09l.58,2.34,0,2.87V48.29l0,2.86a12.25,12.25,0,0,1-2.66,5.73l-.24.23a12.72,12.72,0,0,1-5.46,2.62l-3.12.07ZM44.1,17.5a2.75,2.75,0,0,0-.77-1.57,4.62,4.62,0,0,0-2.1-2.11,1.86,1.86,0,0,0-1-.55A7,7,0,0,0,37,12.15a7.61,7.61,0,0,0-2.59-.39,3.74,3.74,0,0,0-2.09-.23h-.78l-2.87,0a11.49,11.49,0,0,0-2.87,0H23.22a13.65,13.65,0,0,0-3.13,0H17.48c-2-.19-2-.19-2,1.73,0,.39.06.77.09,1.15a9.65,9.65,0,0,0,0,2.84,7.37,7.37,0,0,0,0,2.65,10.67,10.67,0,0,0,0,3.09,7.86,7.86,0,0,0,0,2.65,9.65,9.65,0,0,0,0,2.84,9.4,9.4,0,0,0,0,2.9,9.59,9.59,0,0,0,0,2.83,7.61,7.61,0,0,0,0,2.65,10,10,0,0,0,0,3.09,7.37,7.37,0,0,0,0,2.65,10.65,10.65,0,0,0,0,2.82c0,.78,0,1.55-.1,2.33,0,.61.23.83.84.82,4.23,0,8.46-.06,12.7-.09h2.58a6.52,6.52,0,0,0,2.88-.17A9.05,9.05,0,0,0,37,48a8,8,0,0,0,2.89-.8,6.68,6.68,0,0,0,2.68-1.39l.45-.35a6.17,6.17,0,0,0,2.27-2.87,10.65,10.65,0,0,0,.36-8.36,6,6,0,0,0-1.63-2.85c-.92-1.44-2.46-1.95-3.9-2.61.26-.5.83-.57,1.25-.85A6.53,6.53,0,0,0,44.56,23l0-.51a5.15,5.15,0,0,0-.06-3.4l-.09-.49A1.25,1.25,0,0,0,44.1,17.5Z"/><path class="cls-2" d="M28.71,17.92l2.58,0a6,6,0,0,1,3.11,1.42l.31.46A8.33,8.33,0,0,1,35,23l-.57,1.3-1.3,1.05-1.56.33-1.82.1a.78.78,0,0,0-.82,0,.26.26,0,0,0-.24,0,8,8,0,0,0-2.85,0l-.72-.23c0-.87,0-1.73-.05-2.59V19.86l.05-1.7.45-.22,1,0A5.35,5.35,0,0,0,28.71,17.92Z"/><path class="cls-3" d="M25.83,42c-1.21-.34-.43-1.4-.75-2.07V36.81a10.94,10.94,0,0,0,0-2.62c.28-.65-.42-1.68.76-2a9.52,9.52,0,0,0,2.82,0,7.54,7.54,0,0,0,2.68,0,13.16,13.16,0,0,1,3.09.69l1.5,1.3a10.79,10.79,0,0,1,.7,2.56,11.22,11.22,0,0,1-.51,2.81,7.35,7.35,0,0,1-1.68,1.66L31.56,42l-2.87,0Z"/></g></g></svg>