<svg xmlns="http://www.w3.org/2000/svg" viewBox="0 0 53.79 60"><defs><style>.cls-1{fill:#257eae;}.cls-2{fill:#047db6;}.cls-3{fill:#089ce5;}.cls-4{fill:#f9fcfd;}.cls-5{fill:#e2f1f6;}</style></defs><title>Asset 22</title><g id="Layer_2" data-name="Layer 2"><g id="Layer_1-2" data-name="Layer 1"><path class="cls-1" d="M5,.21a2.76,2.76,0,0,1-.68.4c-.91.26-2.29-.46-2.71.5a5.76,5.76,0,0,0-.24,3.6c.59,2.22.29,4.43.42,6.64.11,1.79-.59,3.79,1.34,5.13.21.15.25.67.22,1-1,9.3.9,18.41,1.77,27.59.2,2.17.69,4.52-.51,6.65Q2.6,29.48.58,7.21A33.43,33.43,0,0,0,.15,3C-.4.5.56-.29,2.9.09A18.88,18.88,0,0,0,5,.21Z"/><path class="cls-2" d="M23.31.22h2.2c.84.76,1.88.43,2.83.43,7.25,0,14.5,0,21.75,0,.63,0,1.76-.61,1.86.74a46.49,46.49,0,0,1,.24,5.8c-.14,2.84-2.09,5.36-1.24,8.29a16.51,16.51,0,0,1,.23,6.92c-1.39,9.9-2,19.88-3.08,29.82-.18,1.66-.9,2.85-2.4,3.13a82.69,82.69,0,0,0-9.19,2.13A3.37,3.37,0,0,1,33,57.08c3.32-2.74,7.56-2.25,11.39-3.13,1.56-.36,2.14-.9,2.12-2.41a43,43,0,0,1,.15-4.82c.63-6.81,1.52-13.6,1.93-20.43C49,19.28,50,12.34,50.6,5.34c.15-1.77-.26-2.53-2.05-2.53q-9.66,0-19.32,0c-.84,0-1.88.06-2,1-.15,1.78-1.19,3.68.39,5.34L25,9.55H22.73a23.06,23.06,0,0,0-6.32,0h-2.2c-4-.42-4.12-.31-3.35,2.72A3.92,3.92,0,0,0,11,14.64c-.35,1.69.74,1.64,1.91,1.64,4.56,0,9.13.06,13.69.09V25.9l-6.52.26c-.44-.15-.89-.3-1.15.28a11.19,11.19,0,0,0-.16,4.39c-.46,1.44-.05,2.13,1.57,2.1,2.11,0,4.22.08,6.32.13-.43,3.54.49,7.15-.54,10.66L22.44,43c-1.69-.33-3.39-.51-3.17-3,.08-.88-5.44-2.46-6.08-1.79a1.41,1.41,0,0,0-.25,1c.19,2.32.41,4.63.63,6.93.09.92.47,1.54,1.53,1.41l.07,0a1.09,1.09,0,0,0,1.19.32l2.14.46.53.1.23.1.25,0a2.82,2.82,0,0,0,2.21.54,1.6,1.6,0,0,0,1.6.43l1,.26c.61.71,1.57.19,2.26.63,0,1,0,2,0,2.92,0,4.45,0,4.45,4.33,3.78-.24.84.93.85,1,1.76-2-1-3.45,1.18-5.42.65-2.71-.72-5.56-1-8.2-1.92-4.49-1.57-10-.34-13.45-4.8l-.17-1.07c1.2-2.13.71-4.48.51-6.65-.87-9.18-2.74-18.29-1.77-27.59,0-.33,0-.85-.22-1-1.93-1.34-1.23-3.34-1.34-5.13C1.69,9.14,2,6.93,1.4,4.71a5.76,5.76,0,0,1,.24-3.6c.42-1,1.8-.24,2.71-.5A2.76,2.76,0,0,0,5,.21H9.91a4.53,4.53,0,0,0,4.26,0h4.34A5.75,5.75,0,0,0,23.31.22Z"/><path class="cls-1" d="M4.81,52.79c3.45,4.46,9,3.23,13.45,4.8,2.64.92,5.49,1.2,8.2,1.92,2,.53,3.4-1.66,5.42-.65-.06-.91-1.23-.92-1-1.76l2.07,0a3.37,3.37,0,0,0,3.55.45A82.69,82.69,0,0,1,45.7,55.4c1.5-.28,2.22-1.47,2.4-3.13,1.06-9.94,1.69-19.92,3.08-29.82A16.51,16.51,0,0,0,51,15.53c-.85-2.93,1.1-5.45,1.24-8.29A46.49,46.49,0,0,0,52,1.44C51.85.09,50.72.7,50.09.7c-7.25,0-14.5,0-21.75,0-.95,0-2,.33-2.83-.43,8.86,0,17.73,0,26.6-.15,2.22,0,1.64,1.36,1.55,2.49-.82,9.37-1.69,18.73-2.53,28.09-.68,7.58-1.37,15.16-2,22.74-.13,1.54-.55,2.38-2.23,2.69a87,87,0,0,0-11,2.48,29.19,29.19,0,0,1-18.11,0A88.64,88.64,0,0,0,7.36,56.18C5.25,55.81,4.31,55,4.81,52.79Z"/><path class="cls-1" d="M23.31.22a5.75,5.75,0,0,1-4.8,0Z"/><path class="cls-1" d="M14.17.22a4.53,4.53,0,0,1-4.26,0Z"/><path class="cls-3" d="M33,57.08l-2.07,0c-4.33.67-4.33.67-4.33-3.78,0-1,0-2,0-2.92,4.15-1,8.29-2,12.45-2.83,1.25-.26,1.88-.77,2-2.06.37-5.43.79-10.85,1.2-16.28a3.7,3.7,0,0,0,.32-2.71l.15-1.67a.72.72,0,0,0,.09-1.09l0-.81A1.09,1.09,0,0,0,43,21.69l.14-2.75.06-.53a2.8,2.8,0,0,0,.15-1.89c.82-1.56.38-3.31.77-4.94S43.77,9.29,42,9.31c-4.79,0-9.57-.09-14.35-.15-1.58-1.66-.54-3.56-.39-5.34.08-.93,1.12-1,2-1q9.66,0,19.32,0c1.79,0,2.2.76,2.05,2.53-.57,7-1.63,13.94-2.05,21-.41,6.83-1.3,13.62-1.93,20.43a43,43,0,0,0-.15,4.82c0,1.51-.56,2.05-2.12,2.41C40.52,54.83,36.28,54.34,33,57.08Z"/><path class="cls-4" d="M43.11,18.94c0,.92-.09,1.84-.14,2.75A1.3,1.3,0,0,0,42.79,23l0,.81c-.56.32-.66.68-.09,1.09l-.15,1.67c-.67.84-.33,1.8-.32,2.71-.41,5.43-.83,10.85-1.2,16.28-.09,1.29-.72,1.8-2,2.06-4.16.87-8.3,1.87-12.45,2.83-.69-.44-1.65.08-2.26-.63a6.74,6.74,0,0,0,1.76-5.69l.81,0c.67.11,1.35.25,1.83-.44,1-.25,2-.59,3.09-.75,2.08-.3,3-1.28,2.88-3.53a50.68,50.68,0,0,1,.4-6.37c-2.3-1.35-4.82-.31-7.22-.65-.81-.12-2.08.41-2.26-.79-.29-1.95-1.79-2.06-3.11-2.34A3.72,3.72,0,0,1,19.57,27v4.85h0l-.8-1a11.19,11.19,0,0,1,.16-4.39l1.15-.28,6.52-.26,0,.23a2.35,2.35,0,0,0,2.66,0c1.59,0,3.18-.1,4.77-.08,1,0,1.78-.08,2-1.22a2.15,2.15,0,0,0,.15-1.8l.25-3c.69-.81.33-1.77.39-2.66,0-.73-.48-1-1.08-1.13-2.5-1-5.11-.2-7.65-.49-1.37-.16-3.21-.06-1.73-2.45.42-.68.76-2.35-.39-2.4-2.94-.14-5.84-1-8.93.35-2.19.94-3.52,3.17-6,3.43a3.92,3.92,0,0,1-.13-2.37c.06-1.55.17-3,2.4-2,.48.21.81-.24,1-.71h2.2a14.19,14.19,0,0,0,6.32,0H25a4.64,4.64,0,0,0,2.63.27q6.16,0,12.33,0c2.17,0,3.57.65,3.28,3.21a25.34,25.34,0,0,0,.07,3.48,2.8,2.8,0,0,1-.15,1.89c-.07.05-.2.1-.19.14A2,2,0,0,0,43.11,18.94ZM11.79,11.81c-.08.14-.22.27-.22.4s.12.28.19.41c.08-.12.21-.25.22-.38S11.87,12,11.79,11.81Z"/><path class="cls-3" d="M36.38,20c-.08,1-.16,2-.25,3A1.79,1.79,0,0,0,36,24.8C35.77,25.94,35,26,34,26c-1.59,0-3.18.05-4.77.08a5.33,5.33,0,0,0-2.66,0l0-.23V16.37l9.1-.17c.6.14,1.09.4,1.08,1.13A3,3,0,0,0,36.38,20Z"/><path class="cls-3" d="M26.88,44.11l-.81,0c0-.12,0-.24,0-.36,1-3.51.11-7.12.54-10.66l8.43,0a50.68,50.68,0,0,0-.4,6.37c.12,2.25-.8,3.23-2.88,3.53-1.05.16-2.06.5-3.09.75A2,2,0,0,0,26.88,44.11Z"/><path class="cls-5" d="M35.69,16.2l-9.1.17c-4.56,0-9.13-.08-13.69-.09-1.17,0-2.26,0-1.91-1.64,2.48-.26,3.81-2.49,6-3.43,3.09-1.32,6-.49,8.93-.35,1.15.05.81,1.72.39,2.4-1.48,2.39.36,2.29,1.73,2.45C30.58,16,33.19,15.22,35.69,16.2Z"/><path class="cls-5" d="M26.11,43.72c0,.12,0,.24,0,.36a6.74,6.74,0,0,1-1.76,5.69l-1-.26A7.31,7.31,0,0,0,21,44.34c-1.74-1.46-3.4-.83-3.85,1.32a14.26,14.26,0,0,1-.8,2.24,1.09,1.09,0,0,1-1.19-.32l.23-.3-.3.26c-1.06.13-1.44-.49-1.53-1.41-.22-2.3-.44-4.61-.63-6.93a1.41,1.41,0,0,1,.25-1c.64-.67,6.16.91,6.08,1.79-.22,2.48,1.48,2.66,3.17,3Z"/><path class="cls-5" d="M35.08,33l-8.43,0c-2.1-.05-4.21-.16-6.32-.13-1.62,0-2-.66-1.57-2.1l.8,1c.66.64,1.35.76,2.42,0H19.57V27a3.72,3.72,0,0,0,2.92,2.25c1.32.28,2.82.39,3.11,2.34.18,1.2,1.45.67,2.26.79C30.26,32.71,32.78,31.67,35.08,33Z"/><path class="cls-4" d="M16.36,47.9a14.26,14.26,0,0,0,.8-2.24c.45-2.15,2.11-2.78,3.85-1.32a7.31,7.31,0,0,1,2.31,5.17,1.6,1.6,0,0,1-1.6-.43c-.57-.83-1.42-.56-2.21-.54l-.25,0-.23-.1c-.13-.27-.3-.35-.53-.1Z"/><path class="cls-5" d="M43.32,16.52A25.34,25.34,0,0,1,43.25,13c.29-2.56-1.11-3.22-3.28-3.21q-6.16,0-12.33,0A4.64,4.64,0,0,1,25,9.55l2.65-.39c4.78.06,9.56.19,14.35.15,1.76,0,2.51.52,2.08,2.27S44.14,15,43.32,16.52Z"/><path class="cls-5" d="M14.21,9.55c-.14.47-.47.92-1,.71-2.23-1-2.34.46-2.4,2C10.09,9.24,10.23,9.13,14.21,9.55Z"/><path class="cls-5" d="M22.73,9.54a14.19,14.19,0,0,1-6.32,0A23.06,23.06,0,0,1,22.73,9.54Z"/><path class="cls-5" d="M19.51,48.54c.79,0,1.64-.29,2.21.54A2.82,2.82,0,0,1,19.51,48.54Z"/><path class="cls-5" d="M20.07,26.16l-1.15.28C19.18,25.86,19.63,26,20.07,26.16Z"/><path class="cls-5" d="M18.5,48.36c.23-.25.4-.17.53.1Z"/><path class="cls-5" d="M42.19,29.23c0-.91-.35-1.87.32-2.71A3.7,3.7,0,0,1,42.19,29.23Z"/><path class="cls-5" d="M42.66,24.85c-.57-.41-.47-.77.09-1.09A.72.72,0,0,1,42.66,24.85Z"/><path class="cls-5" d="M42.79,23A1.3,1.3,0,0,1,43,21.69,1.09,1.09,0,0,1,42.79,23Z"/><path class="cls-5" d="M43.11,18.94a2,2,0,0,1-.13-.39s.12-.09.19-.14Z"/><path class="cls-5" d="M36.38,20a3,3,0,0,1,.39-2.66C36.71,18.22,37.07,19.18,36.38,20Z"/><path class="cls-5" d="M26.56,26.13a5.33,5.33,0,0,1,2.66,0A2.35,2.35,0,0,1,26.56,26.13Z"/><path class="cls-5" d="M11.79,11.81c.08.15.2.29.19.43s-.14.26-.22.38c-.07-.13-.19-.27-.19-.41S11.71,12,11.79,11.81Z"/><path class="cls-5" d="M26.88,44.11a2,2,0,0,1,1.83-.44C28.23,44.36,27.55,44.22,26.88,44.11Z"/><path class="cls-5" d="M36,24.8a1.79,1.79,0,0,1,.15-1.8A2.15,2.15,0,0,1,36,24.8Z"/><path class="cls-4" d="M15.1,47.54l.3-.26-.23.3Z"/><path class="cls-4" d="M19.57,31.84H22c-1.07.77-1.76.65-2.42,0Z"/></g></g></svg>