<svg xmlns="http://www.w3.org/2000/svg" viewBox="0 0 39.84 60"><defs><style>.cls-1{fill:#fe7261;}.cls-2{fill:#f24e1f;}.cls-3{fill:#a259fe;}.cls-4{fill:#0bce82;}.cls-5{fill:#1cbcfc;}.cls-6{fill:#f59990;}.cls-7{fill:#a0bfdf;}.cls-8{fill:#efeefe;}</style></defs><title>Asset 19</title><g id="Layer_2" data-name="Layer 2"><g id="Layer_1-2" data-name="Layer 1"><path class="cls-1" d="M19.67.3A50.65,50.65,0,0,1,31.79.43a9.63,9.63,0,0,1,7.9,9.64,9.73,9.73,0,0,1-8.22,9.81,14,14,0,0,0-4.56.21l-7.15.22,0-.09a3.32,3.32,0,0,0-.06-.44l.09-.45c.59-.64.33-1.42.33-2.14,0-4.48,0-9,0-13.45,0-.93.34-1.94-.33-2.81Z"/><path class="cls-2" d="M19.76,19.33l-.09.45L8.33,19.9C2.43,18.38-.6,14.14.16,8.5c.68-5,5-8.36,10.7-8.35,2.94,0,5.87.1,8.81.15,0,.21.06.42.08.63Q19.75,10.13,19.76,19.33Z"/><path class="cls-3" d="M8,39.86C2.75,38.38,0,34.68.11,29.45c.14-4.62,3.26-8.06,8.39-9.25l11.23,0,0,.09.06,9.12-.05,1.33c0,.76-.37,1.6.38,2.24h0a.46.46,0,0,0-.09.32c-.28,2.27.3,4.59-.34,6.84l-.45,0C15.52,39.48,11.74,40,8,39.86Z"/><path class="cls-4" d="M19.27,40.14l.45,0A71.32,71.32,0,0,1,19.8,51a9.74,9.74,0,0,1-9.21,9A10.12,10.12,0,0,1,.36,52.69,10,10,0,0,1,5.78,41c.68-.32,1.42-.51,2.13-.77Z"/><path class="cls-5" d="M19.77,30.76c0-.45,0-.89.05-1.32.63-4.62,3.28-7.55,7.58-9.11l3.88-.19C37.73,22,41.14,27.39,39.38,33a10.12,10.12,0,0,1-9.53,7c-3.79.19-7.61-2.51-9.37-6.6L20.15,33h0A3.69,3.69,0,0,0,19.77,30.76Z"/><path class="cls-6" d="M19.73,20.22,8.5,20.2a1.11,1.11,0,0,1-.17-.3l11.34-.12A3.32,3.32,0,0,1,19.73,20.22Z"/><path class="cls-7" d="M19.27,40.14l-11.36.09A1.61,1.61,0,0,0,8,39.86C11.74,40,15.52,39.48,19.27,40.14Z"/><path class="cls-6" d="M31.28,20.14l-3.88.19-.49-.24a14,14,0,0,1,4.56-.21A.61.61,0,0,1,31.28,20.14Z"/><path class="cls-7" d="M20.15,33l.33.46a.58.58,0,0,1-.42-.14A.46.46,0,0,1,20.15,33Z"/><path class="cls-8" d="M26.91,20.09l.49.24c-4.3,1.56-6.95,4.49-7.58,9.11l-.06-9.13Z"/><path class="cls-6" d="M19.76,19.33q0-9.19,0-18.4c.68.87.33,1.88.34,2.81,0,4.49,0,9,0,13.45C20.09,17.91,20.35,18.69,19.76,19.33Z"/><path class="cls-7" d="M19.77,30.76A3.69,3.69,0,0,1,20.15,33C19.4,32.36,19.79,31.52,19.77,30.76Z"/></g></g></svg>