<svg xmlns="http://www.w3.org/2000/svg" viewBox="0 0 53.71 60"><defs><style>.cls-1{fill:#fc393d;}.cls-2{fill:#fc3639;}.cls-3{fill:#fd7964;}.cls-4{fill:#fdfcf6;}.cls-5{fill:#f8eeea;}.cls-6{fill:#fdfdfd;}.cls-7{fill:#e2f1f6;}</style></defs><title>Asset 21</title><g id="Layer_2" data-name="Layer 2"><g id="Layer_1-2" data-name="Layer 1"><path class="cls-1" d="M1.79.12c1.15,3.68,0,7.47.53,11.18.2,1.44-.46,1.11-1.21.56C1,11.14.8,10.41.65,9.69A37.42,37.42,0,0,0,0,2.15C.08,1-.19-.42,1.79.12Z"/><path class="cls-1" d="M2.36,26.35l1.25.26c-.56,2.61,2.27,5.44-.5,7.91A45.73,45.73,0,0,1,2.36,26.35Z"/><path class="cls-1" d="M52.85,8.61c-1-.09-1.13-.77-1.05-1.54a31.06,31.06,0,0,1,.61-4.73c.15-.62.57.29.93.34A20.35,20.35,0,0,1,52.85,8.61Z"/><path class="cls-1" d="M1.38,15.6c1.51.72,1.17,1.69.35,2.71A4.16,4.16,0,0,1,1.38,15.6Z"/><path class="cls-1" d="M1.84,20.45c.9,1.06.35,2.3.42,3.46A6.59,6.59,0,0,1,1.84,20.45Z"/><path class="cls-1" d="M53.49,1.12a1.05,1.05,0,0,1-.63-1C53.82,0,53.87.42,53.49,1.12Z"/><path class="cls-1" d="M51.85,18.52c0-.62-.21-1.26.29-1.79A2.11,2.11,0,0,1,51.85,18.52Z"/><path class="cls-1" d="M52.23,15.59a2,2,0,0,1-.14-.39s.12-.09.19-.13Z"/><path class="cls-1" d="M4.44,35.75l-.23.4C4.14,36,4,35.89,4,35.76s.12-.26.2-.4Z"/><path class="cls-1" d="M50.28,7.54c0-.92-.39-1.9.44-2.68C51.44,5.89,51.81,6.87,50.28,7.54Z"/><path class="cls-2" d="M1.79.12H37.27V2.64c-1.23,0-2.47,0-3.71.06-6.94,0-6.94,0-7,7a4.21,4.21,0,0,0,0,.5l-1.09,0A15,15,0,0,0,17.58,8.6a3.21,3.21,0,0,1-2.95-.84c-.78-.84-1.69-1.94-2.91-.91s-1,2.21-.25,3.4l-.48.88c0,1.13-.46,2.34.4,3.38l.55,5.93c-1.38-.07-2.12.5-2.09,2s1,1.85,2.28,1.78l-.06.76c.06,1-.47,2.13.48,3,.18,1.56.48,3.11.52,4.66s.78,2,2.17,1.6h2.69l8.6.18c.15,2.25-.24,4.53.42,6.76a1.43,1.43,0,0,1-1.1,2c-.53-.11-1.05-.25-1.57-.33-1.92-.31-3.74-.62-3.39-3.32.12-.94-.72-1-1.52-1-5.7-.14-5.7-.16-5.25,5.55a4.85,4.85,0,0,1,.07,1.07c-.23,1.66.6,2.49,2.11,2.82-.29,2.31,1.39,3.08,3.06,3.53s3,0,3.39-1.92l1,0,3.26,1a39.71,39.71,0,0,1-.15,5.35c-.26,1.62.39,1.73,1.57,1.37A19.92,19.92,0,0,1,35,56.37l-.46,2.17a22.2,22.2,0,0,1-14.09.58C16,57.85,11.33,56.89,6.71,55.94a2.15,2.15,0,0,1-2-2.25c-.49-6.4-1-12.78-1.57-19.17,2.77-2.47-.06-5.3.5-7.91l-1.25-.26c0-.81-.06-1.62-.1-2.44-.07-1.16.48-2.4-.42-3.46l-.11-2.14c.82-1,1.16-2-.35-2.71l-.27-3.74c.75.55,1.41.88,1.21-.56C1.81,7.59,2.94,3.8,1.79.12ZM8.24,22.63c0-1.21.18-2.53-1.51-2.67-1.07-.09-1.81.52-1.64,1.58.2,1.31.79,2.77,2.18,3S8.05,23.32,8.24,22.63ZM4.44,35.75l-.24-.39c-.08.14-.21.27-.2.4s.14.26.21.39Z"/><path class="cls-1" d="M34.58,58.54c.15-.72.31-1.44.46-2.16l.05,0,.6,0c2,.24,2.75-1.94,4.66-2.16,5.43-.62,5.53-.74,6.1-6.07,1-9.07,1.82-18.15,2.71-27.23,1.74.26,1.43-1.24,1.79-2.62.36,1,.21,1.71.8,2.08q-.9,11.31-1.81,22.63c-.29,3.46-.65,6.92-.9,10.39-.09,1.31-.54,2.17-1.92,2.45C42.93,56.76,38.76,57.66,34.58,58.54Z"/><path class="cls-2" d="M51.75,20.43c-.59-.37-.44-1.08-.8-2.08-.36,1.38-.05,2.88-1.79,2.62q.56-6.72,1.12-13.43c1.53-.67,1.16-1.65.44-2.68.22-1.75-.59-2.34-2.26-2.18a27.1,27.1,0,0,1-3.12,0V.12l7.53,0a1.05,1.05,0,0,0,.63,1l-.15,1.56c-.36-.05-.78-1-.93-.34a31.06,31.06,0,0,0-.61,4.73c-.08.77.09,1.45,1.05,1.54a35,35,0,0,1-.57,6.46c-.07,0-.2.1-.19.13a2,2,0,0,0,.14.39l-.09,1.14c-.5.53-.33,1.17-.29,1.79Z"/><path class="cls-1" d="M45.33.12c0,.84,0,1.68,0,2.53H37.26V.12Z"/><path class="cls-3" d="M37.26,2.64h8.08a29.55,29.55,0,0,0,3.12,0c1.67-.16,2.48.43,2.26,2.18-.83.78-.44,1.76-.44,2.68Q49.72,14.25,49.16,21c-.89,9.08-1.72,18.16-2.71,27.23-.57,5.33-.67,5.45-6.1,6.07-1.91.22-2.69,2.4-4.66,2.16-.19-.33-.38-.51-.6,0l-.05,0a19.66,19.66,0,0,0-6.59.93c-1.18.36-1.83.25-1.57-1.37A39.71,39.71,0,0,0,27,50.59l3.79-1.16.52-.1c2.17-.46,4.32-1,6.52-1.35a2,2,0,0,0,1.87-2.15q.68-8.65,1.32-17.32c.46-.73.23-1-.58-.88a138.49,138.49,0,0,0-14,.07.33.33,0,0,1,0-.29c.13-3.38-.26-6.78.5-10.13,3.19-.05,6.37-.12,9.56-.14,6.19,0,6.19,0,6-6.38,0-.32-.16-.4-.44-.34L27,10.19l-.51-.52c.08-7,.08-7,7-7C34.79,2.69,36,2.66,37.26,2.64Z"/><path class="cls-4" d="M26.5,27.7a138.49,138.49,0,0,1,14-.07c.2.29.39.58.58.88q-.66,8.65-1.32,17.32A2,2,0,0,1,37.86,48c-2.2.32-4.35.89-6.52,1.35-.23-.25-.39-.17-.52.1L27,50.59l-3.26-1c.67-1.49,2.52.43,3.12-1.05.51-1.3-.67-2.51-.39-3.84a5.25,5.25,0,0,0,0-1.05l1-.22c5.27-1.3,5.22-1.31,5.87-6.52.25-2-.33-2.8-2.4-2.57-1.49.16-3,.07-4.51.09l-8.6-.18c.83-2.82,4.55-4.38,6.77-2.55s2,.8,2.06-1.16A7,7,0,0,0,26.5,27.7Z"/><path class="cls-5" d="M26.5,27.7a7,7,0,0,1,.26,2.81c0,2,.22,3.05-2.06,1.16s-5.94-.27-6.77,2.55h-1.1c-.53-1.26-1.06-1.25-1.59,0-1.39.37-2.12,0-2.17-1.6s-.34-3.1-.52-4.66c0-1,.25-2.09-.48-3l.06-.76c-.07-1.25-.13-2.5-.19-3.75q-.28-3-.55-5.93a7.05,7.05,0,0,0-.4-3.38l.48-.88.54.2.53.85c.08.39-.11,1.21.38,1.08,4.5-1.21,9.07-.2,13.59-.54.1.69-.06,1.69.34,2,1.6,1.33.59,2.2-.32,3.17-1.43,0-2.86.08-4.29.09-3.41,0-3.41,0-3.08,3.31,0,.27.08.54.11.8.7,6.44.7,6.44,7.25,6.18A.33.33,0,0,0,26.5,27.7Z"/><path class="cls-6" d="M26.53,17c.91-1,1.92-1.84.32-3.17-.4-.33-.24-1.33-.34-2-.69-.82-1.65-.52-2.5-.53-3.82,0-7.64,0-11.47,0L12,10.45l13.42-.26,1.09,0,.52,0,15.08.23.44.34c.21,6.36.21,6.35-6,6.38-3.19,0-6.37.09-9.56.14Z"/><path class="cls-5" d="M26.53,43.62a5.25,5.25,0,0,1,0,1.05c-.28,1.33.9,2.54.39,3.84-.6,1.48-2.45-.44-3.12,1.05l-1,0L16.3,48c-1.51-.33-2.34-1.16-2.11-2.82a4.85,4.85,0,0,0-.07-1.07c-.45-5.71-.45-5.69,5.25-5.55.8,0,1.64,0,1.52,1-.35,2.7,1.47,3,3.39,3.32.52.08,1,.22,1.57.33Z"/><path class="cls-3" d="M26.53,43.62l-.68-.45a1.43,1.43,0,0,0,1.1-2c-.66-2.23-.27-4.51-.42-6.76,1.5,0,3,.07,4.51-.09,2.07-.23,2.65.59,2.4,2.57-.65,5.21-.6,5.22-5.87,6.52Z"/><path class="cls-1" d="M25.43,10.19,12,10.45l-.54-.2c-.7-1.19-.85-2.49.25-3.4s2.13.07,2.91.91a3.21,3.21,0,0,0,2.95.84A15,15,0,0,1,25.43,10.19Z"/><path class="cls-1" d="M16.3,48l6.45,1.61c-.4,1.92-1.86,2.34-3.39,1.92S16,50.3,16.3,48Z"/><path class="cls-1" d="M8.24,22.63c-.19.69.41,2.14-1,1.91s-2-1.69-2.18-3c-.17-1.06.57-1.67,1.64-1.58C8.42,20.1,8.2,21.42,8.24,22.63Z"/><path class="cls-1" d="M11.94,20.44c.06,1.25.12,2.5.19,3.75-1.28.07-2.24-.23-2.28-1.78S10.56,20.37,11.94,20.44Z"/><path class="cls-4" d="M15.24,34.22c.53-1.25,1.06-1.26,1.59,0Z"/><path class="cls-1" d="M11,11.13a7.05,7.05,0,0,1,.4,3.38C10.53,13.47,11,12.26,11,11.13Z"/><path class="cls-1" d="M12.07,25c.73.92.46,2,.48,3C11.6,27.08,12.13,26,12.07,25Z"/><path class="cls-1" d="M27,10.19l-.52,0a4.21,4.21,0,0,1,0-.5Z"/><path class="cls-2" d="M35.09,56.41c.22-.49.41-.31.6,0Z"/><path class="cls-2" d="M26.53,17l.49.25c-.76,3.35-.37,6.75-.5,10.13-6.55.26-6.55.26-7.25-6.18,0-.26-.08-.53-.11-.8-.33-3.3-.33-3.3,3.08-3.31C23.67,17.11,25.1,17.06,26.53,17Z"/><path class="cls-5" d="M41.05,28.51c-.19-.3-.38-.59-.58-.88C41.28,27.51,41.51,27.78,41.05,28.51Z"/><path class="cls-5" d="M42.56,10.76l-.44-.34C42.4,10.36,42.57,10.44,42.56,10.76Z"/><path class="cls-5" d="M30.82,49.43c.13-.27.29-.35.52-.1Z"/><path class="cls-7" d="M12.54,11.3c3.83,0,7.65,0,11.47,0,.85,0,1.81-.29,2.5.53-4.52.34-9.09-.67-13.59.54C12.43,12.51,12.62,11.69,12.54,11.3Z"/></g></g></svg>