<svg xmlns="http://www.w3.org/2000/svg" viewBox="0 0 59.99 60"><defs><style>.cls-1{fill:#00cdf4;}.cls-2{fill:#116baf;}.cls-3{fill:#00ccf3;}.cls-4{fill:#fafcfd;}.cls-5{fill:#00cbf3;}.cls-6{fill:#fafbfd;}.cls-7{fill:#fbfcfd;}.cls-8{fill:#00cbf2;}.cls-9{fill:#f7fafc;}.cls-10{fill:#146db0;}.cls-11{fill:#196fb1;}</style></defs><title>Asset 26</title><g id="Layer_2" data-name="Layer 2"><g id="Layer_1-2" data-name="Layer 1"><path class="cls-1" d="M57.44,60H2.55a.6.6,0,0,0,.06-.11s0,0,0,0A4.15,4.15,0,0,1,.16,57.43c0-.09-.11,0-.16,0V2.55a.6.6,0,0,0,.11.06s0,0,.05,0A4.15,4.15,0,0,1,2.57.16c.09,0,0-.11,0-.16H57.44a.6.6,0,0,0-.06.11s0,0,0,.05a4.15,4.15,0,0,1,2.41,2.41c0,.09.11,0,.16,0v54.9a.39.39,0,0,0-.11-.06s0,0-.05,0a4.15,4.15,0,0,1-2.41,2.41C57.33,59.88,57.38,60,57.44,60ZM2.1,29.81V55.67c0,1.46.61,2.08,2,2.08H55.85c1.43,0,2-.62,2-2.06V4c0-1.48-.6-2.08-2.1-2.08H4.21C2.68,2,2.1,2.54,2.1,4.09Z"/><path class="cls-2" d="M2.1,29.81V4.09C2.1,2.54,2.68,2,4.21,2H55.79c1.5,0,2.1.6,2.1,2.08V55.69c0,1.44-.61,2.06-2,2.06H4.13c-1.42,0-2-.62-2-2.08ZM43.64,15.59l0,0v0l-.2.1c-.27.13-.55.23-.81.38a6.43,6.43,0,0,1-7.67-.8,6.27,6.27,0,0,1-2.24-6.65c0-.16.16-.34,0-.56a4.12,4.12,0,0,0-1,1.9,6.36,6.36,0,0,0,2.42,7,6.54,6.54,0,0,0,9.42-1.26Zm.14,6.15c-.27,0-.42.25-.62.4a9.51,9.51,0,0,1-5.08,2,11.86,11.86,0,0,1-11.49-7.51,9.6,9.6,0,0,1-.05-6.72l.1-.09-.07,0,0,.13a.67.67,0,0,0-.39.33,8.63,8.63,0,0,0-1.77,7.4,11.2,11.2,0,0,0,15.15,8.08,7,7,0,0,0,4.26-3.95l.09-.09-.07-.05Zm-24.6-9.16a3.12,3.12,0,0,0-.78.8,11.7,11.7,0,0,0-2.28,9.4A15.87,15.87,0,0,0,34.84,35.37a11.4,11.4,0,0,0,8.24-6.24c.07-.07.14-.14,0-.23S43,29,43,29c-.21.13-.43.25-.63.4a12.85,12.85,0,0,1-8.17,2.65A16.79,16.79,0,0,1,23.24,27.8a13.47,13.47,0,0,1-4.93-10.72,15.88,15.88,0,0,1,.91-4.46l.05-.09ZM17.84,48.65h2.33c1.22,0,1.22,0,1.53-1.18a.79.79,0,0,1,.05-.22c.19-.52.11-.82-.54-.72s-.56-.21-.38-.65a17.88,17.88,0,0,0,1-3,4,4,0,0,0-1.74-4.61,5.65,5.65,0,0,0-7.2,2,8.88,8.88,0,0,0-1.33,5.22,3,3,0,0,0,2.55,3A15,15,0,0,0,17.84,48.65Zm20.82-2h-2.6a6.86,6.86,0,0,1-1.86-.16.9.9,0,0,1-.73-.92c0-.56.53-.42.88-.42,1.42,0,2.84,0,4.27,0,.34,0,.53-.06.59-.45a10.79,10.79,0,0,0,.23-2.53,2,2,0,0,0-.86-1.73c-1.71-1.06-5.09-.5-6.21,1.17a7.62,7.62,0,0,0-1.21,5.14,1.79,1.79,0,0,0,1.63,1.7,17.89,17.89,0,0,0,3.58.28c1.9,0,1.9,0,2.29-1.85A1.4,1.4,0,0,0,38.66,46.67ZM26.93,48.6h0c.65,0,1.3,0,1.95,0,.43,0,.6-.12.68-.55.44-2.15.91-4.3,1.37-6.44.34-1.6.34-1.58-1.27-1.58-.49,0-.63.18-.73.62-.35,1.55-.73,3.1-1.11,4.65-.3,1.23-.3,1.23-1.59,1.2-1.07,0-1.32-.34-1.11-1.4.3-1.52.58-3,.9-4.55.09-.41,0-.5-.4-.52-1.73-.05-1.73-.06-2.11,1.65,0,0,0,.1,0,.14-.26,1.3-.63,2.57-.77,3.89-.21,1.89.62,2.85,2.51,2.89Zm28.46-9.76c-.79,0-1.43,0-2.07,0a1,1,0,0,0-1,.5c-.84,1.21-1.72,2.39-2.58,3.59-.25.35-.51.69-.8,1.08-.47-1.27-.47-1.27-1.78-1.27H47c-.92,0-.93,0-.71.93.39,1.6,1.21,3.17.32,4.94.75,0,1.38,0,2,0,.39,0,.58-.1.64-.51a5.24,5.24,0,0,1,1.12-2.41C52,43.47,53.63,41.23,55.39,38.84ZM39.58,48.6c.6,0,1.12,0,1.64,0s.68-.14.78-.63c.36-1.7.8-3.39,1.15-5.1.11-.53.32-.69.84-.68,1.32,0,2.65,0,4,0,.17,0,.42.12.48-.19A1.88,1.88,0,0,0,47,40.07c-1.67,0-3.34,0-5,0a.68.68,0,0,0-.75.58C40.71,43.27,40.15,45.9,39.58,48.6Zm-30-5.87c-1.18,0-1.19,0-1.44,1.12-.35,1.5-.68,3-1,4.52-.19.84-.58,1.49-1.57,1.52a.39.39,0,0,0-.41.34c-.12.51-.26,1-.4,1.52,0,.18-.07.3.18.38a3.25,3.25,0,0,0,4.24-2.24c.51-2,.94-4,1.37-6C10.75,42.74,10.72,42.73,9.55,42.73Zm.19-.59c.48-.08,1.18.3,1.35-.69C11.32,40,11.38,40.1,10,40c-.77-.05-1.08.2-1.22.95C8.51,42.14,8.46,42.14,9.74,42.14Z"/><path class="cls-3" d="M43.08,29.13a11.4,11.4,0,0,1-8.24,6.24A15.87,15.87,0,0,1,16.12,22.78a11.7,11.7,0,0,1,2.28-9.4,3.12,3.12,0,0,1,.78-.8l0,0a15.88,15.88,0,0,0-.91,4.46A13.47,13.47,0,0,0,23.24,27.8a16.79,16.79,0,0,0,10.93,4.28,12.85,12.85,0,0,0,8.17-2.65c.2-.15.42-.27.63-.4Z"/><path class="cls-4" d="M17.84,48.65a15,15,0,0,1-3.73-.18,3,3,0,0,1-2.55-3,8.88,8.88,0,0,1,1.33-5.22,5.65,5.65,0,0,1,7.2-2,4,4,0,0,1,1.74,4.61,17.88,17.88,0,0,1-1,3c-.18.44-.24.74.38.65s.73.2.54.72a.79.79,0,0,0-.05.22c-.31,1.16-.31,1.16-1.53,1.18Zm-.76-2.21c.34-.17,1,.34,1.23-.33a19.56,19.56,0,0,0,1.1-4A1.87,1.87,0,0,0,17.62,40a2.77,2.77,0,0,0-2.77,1.64,7.63,7.63,0,0,0-.57,2.09c-.34,1.95.19,2.6,2.19,2.7C16.64,46.45,16.82,46.44,17.08,46.44Z"/><path class="cls-5" d="M26.54,9.9a9.6,9.6,0,0,0,.05,6.72,11.86,11.86,0,0,0,11.49,7.51,9.51,9.51,0,0,0,5.08-2c.2-.15.35-.37.62-.4l0,0a7,7,0,0,1-4.26,3.95,11.2,11.2,0,0,1-15.15-8.08,8.63,8.63,0,0,1,1.77-7.4.67.67,0,0,1,.39-.33Z"/><path class="cls-6" d="M38.66,46.67a1.4,1.4,0,0,1,0,.21c-.39,1.86-.39,1.86-2.29,1.85a17.89,17.89,0,0,1-3.58-.28,1.79,1.79,0,0,1-1.63-1.7,7.62,7.62,0,0,1,1.21-5.14c1.12-1.67,4.5-2.23,6.21-1.17a2,2,0,0,1,.86,1.73,10.79,10.79,0,0,1-.23,2.53c-.06.39-.25.46-.59.45-1.43,0-2.85,0-4.27,0-.35,0-.85-.14-.88.42a.9.9,0,0,0,.73.92,6.86,6.86,0,0,0,1.86.16ZM35.5,43.34h0c.42,0,.84,0,1.26,0s.54-.23.39-.59a1.07,1.07,0,0,0-1-.78c-.75,0-1.51-.07-2,.64-.12.18-.28.41-.16.62s.36.09.54.1Z"/><path class="cls-4" d="M26.93,48.6H25.21c-1.89,0-2.72-1-2.51-2.89.14-1.32.51-2.59.77-3.89,0,0,0-.09,0-.14.38-1.71.38-1.7,2.11-1.65.42,0,.49.11.4.52-.32,1.51-.6,3-.9,4.55-.21,1.06,0,1.38,1.11,1.4,1.29,0,1.29,0,1.59-1.2.38-1.55.76-3.1,1.11-4.65.1-.44.24-.62.73-.62,1.61,0,1.61,0,1.27,1.58-.46,2.14-.93,4.29-1.37,6.44-.08.43-.25.58-.68.55-.65,0-1.3,0-1.95,0Z"/><path class="cls-4" d="M55.39,38.84c-1.76,2.39-3.38,4.63-5.06,6.84a5.24,5.24,0,0,0-1.12,2.41c-.06.41-.25.53-.64.51-.62,0-1.25,0-2,0,.89-1.77.07-3.34-.32-4.94-.22-.93-.21-.93.71-.93h.22c1.31,0,1.31,0,1.78,1.27.29-.39.55-.73.8-1.08.86-1.2,1.74-2.38,2.58-3.59a1,1,0,0,1,1-.5C54,38.87,54.6,38.84,55.39,38.84Z"/><path class="cls-7" d="M39.58,48.6c.57-2.7,1.13-5.33,1.67-8a.68.68,0,0,1,.75-.58c1.67,0,3.34,0,5,0A1.88,1.88,0,0,1,48.44,42c-.06.31-.31.19-.48.19-1.32,0-2.65.06-4,0-.52,0-.73.15-.84.68-.35,1.71-.79,3.4-1.15,5.1-.1.49-.29.67-.78.63S40.18,48.6,39.58,48.6Z"/><path class="cls-6" d="M9.55,42.73c1.17,0,1.2,0,.94,1.19-.43,2-.86,4-1.37,6a3.25,3.25,0,0,1-4.24,2.24c-.25-.08-.23-.2-.18-.38.14-.51.28-1,.4-1.52a.39.39,0,0,1,.41-.34c1,0,1.38-.68,1.57-1.52.35-1.51.68-3,1-4.52C8.36,42.73,8.37,42.73,9.55,42.73Z"/><path class="cls-8" d="M43.51,15.76A6.54,6.54,0,0,1,34.09,17a6.36,6.36,0,0,1-2.42-7,4.12,4.12,0,0,1,1-1.9c.17.22.05.4,0,.56A6.27,6.27,0,0,0,35,15.28a6.43,6.43,0,0,0,7.67.8c.26-.15.54-.25.81-.38Z"/><path class="cls-9" d="M9.74,42.14c-1.28,0-1.23,0-1-1.16.14-.75.45-1,1.22-.95,1.43.07,1.37,0,1.14,1.42C10.92,42.44,10.22,42.06,9.74,42.14Z"/><path class="cls-5" d="M26.55,9.9l0-.13.07,0-.1.09Z"/><path class="cls-5" d="M43.78,21.74l0-.12.07.05-.09.09Z"/><path class="cls-3" d="M43,29c.05-.05.13-.14.14-.13s0,.16,0,.23Z"/><path class="cls-3" d="M19.18,12.58l.09-.05-.05.09Z"/><polygon class="cls-8" points="43.65 15.6 43.66 15.57 43.64 15.6 43.65 15.6"/><path class="cls-8" d="M43.45,15.7l.2-.1h0l-.13.17Z"/><path class="cls-10" d="M17.08,46.44c-.26,0-.44,0-.61,0-2-.1-2.53-.75-2.19-2.7a7.63,7.63,0,0,1,.57-2.09A2.77,2.77,0,0,1,17.62,40a1.87,1.87,0,0,1,1.79,2.07,19.56,19.56,0,0,1-1.1,4C18.08,46.78,17.42,46.27,17.08,46.44Z"/><path class="cls-11" d="M35.5,43.34h-1c-.18,0-.44.09-.54-.1s0-.44.16-.62c.51-.71,1.27-.67,2-.64a1.07,1.07,0,0,1,1,.78c.15.36.13.63-.39.59s-.84,0-1.26,0Z"/></g></g></svg>