<svg xmlns="http://www.w3.org/2000/svg" viewBox="0 0 60 58.54"><defs><style>.cls-1{fill:#00c7fe;}.cls-2{fill:#001e28;}.cls-3{fill:#00c3f8;}.cls-4{fill:#00c4fa;}.cls-5{fill:#001f28;}</style></defs><title>Asset 17</title><g id="Layer_2" data-name="Layer 2"><g id="Layer_1-2" data-name="Layer 1"><path class="cls-1" d="M30,58.52q-14.5,0-29,0c-.67,0-1,0-1-.88Q0,29.26,0,.86C0,.09.21,0,.89,0Q30,0,59.14,0c.77,0,.85.21.85.89q0,28.4,0,56.79c0,.77-.21.86-.89.86C49.4,58.51,39.69,58.52,30,58.52ZM30,56c8.69,0,17.38,0,26.08,0,1.06,0,1.44-.19,1.44-1.37q-.06-25.41,0-50.82c0-1.18-.39-1.37-1.44-1.37q-26.08,0-52.15,0c-1.06,0-1.45.2-1.44,1.37q.06,25.41,0,50.82c0,1.18.39,1.38,1.45,1.37C12.62,56,21.31,56,30,56Z"/><path class="cls-2" d="M30,56c-8.69,0-17.38,0-26.07,0-1.06,0-1.45-.19-1.45-1.37q.07-25.41,0-50.82c0-1.17.38-1.37,1.44-1.37q26.07,0,52.15,0c1.05,0,1.44.19,1.44,1.37q-.06,25.41,0,50.82c0,1.18-.38,1.38-1.44,1.37C47.38,56,38.69,56,30,56ZM14.49,27.17V37.64c0,3.35,0,3.32,3.41,3.29.86,0,1.1-.29,1.09-1.12,0-2.6,0-5.19,0-7.79,0-.8.22-1.06,1-1a14,14,0,0,0,4.82-.47c4.38-1.25,6.73-4.75,6.32-9.41s-3.14-7.3-7.86-7.74c-2.48-.23-4.95,0-7.42,0-1,0-1.4.29-1.39,1.38C14.52,18.9,14.49,23,14.49,27.17Zm19.07,8.67c0,1.24,0,2.32,0,3.4a1.19,1.19,0,0,0,1,1.33,11.84,11.84,0,0,0,7.3.28A6,6,0,0,0,43.05,30c-1.31-.82-2.68-1.52-4-2.32-.79-.48-1.46-1.13-1.15-2.18A2,2,0,0,1,40,24.08a9.07,9.07,0,0,1,4.38.8c.3.14.75.48.78-.21,0-1.1,0-2.19,0-3.29,0-.39-.34-.54-.66-.62-2.52-.66-5-.92-7.51.18a5.73,5.73,0,0,0-1.38,9.67,13.37,13.37,0,0,0,2.78,1.74,11.52,11.52,0,0,1,2.47,1.55,1.85,1.85,0,0,1-1,3.39,8.3,8.3,0,0,1-3-.13A15.31,15.31,0,0,1,33.56,35.84Z"/><path class="cls-3" d="M14.49,27.17c0-4.13,0-8.27,0-12.41,0-1.09.35-1.4,1.39-1.38,2.47,0,4.94-.22,7.42,0,4.72.44,7.44,3.12,7.86,7.74s-1.94,8.16-6.32,9.41A14,14,0,0,1,20,31c-.81-.05-1,.21-1,1,0,2.6,0,5.19,0,7.79,0,.83-.23,1.12-1.09,1.12-3.41,0-3.41.06-3.41-3.29Zm4.48-5c0,1.34,0,2.68,0,4,0,.44,0,.8.63.82a11,11,0,0,0,4.31-.49c1.93-.76,2.83-2.44,2.7-4.95a4.15,4.15,0,0,0-3.1-4,13.22,13.22,0,0,0-3.87-.24c-.66,0-.67.4-.67.88C19,19.54,19,20.87,19,22.21Z"/><path class="cls-4" d="M33.56,35.84a15.31,15.31,0,0,0,3.31,1.32,8.3,8.3,0,0,0,3,.13,1.85,1.85,0,0,0,1-3.39,11.52,11.52,0,0,0-2.47-1.55,13.37,13.37,0,0,1-2.78-1.74A5.73,5.73,0,0,1,37,20.94c2.46-1.1,5-.84,7.51-.18.32.08.65.23.66.62,0,1.1,0,2.19,0,3.29,0,.69-.48.35-.78.21a9.07,9.07,0,0,0-4.38-.8,2,2,0,0,0-2.09,1.37c-.31,1.05.36,1.7,1.15,2.18,1.32.8,2.69,1.5,4,2.32a6,6,0,0,1-1.24,10.9,11.84,11.84,0,0,1-7.3-.28,1.19,1.19,0,0,1-1-1.33C33.6,38.16,33.56,37.08,33.56,35.84Z"/><path class="cls-5" d="M19,22.21c0-1.34,0-2.67,0-4,0-.48,0-.89.67-.88a13.22,13.22,0,0,1,3.87.24,4.15,4.15,0,0,1,3.1,4c.13,2.51-.77,4.19-2.7,4.95A11,11,0,0,1,19.6,27c-.59,0-.63-.38-.63-.82C19,24.89,19,23.55,19,22.21Z"/></g></g></svg>