<svg xmlns="http://www.w3.org/2000/svg" viewBox="0 0 60 53.43"><defs><style>.cls-1{fill:#62dafa;}</style></defs><title>Asset 25</title><g id="Layer_2" data-name="Layer 2"><g id="Layer_1-2" data-name="Layer 1"><path class="cls-1" d="M48.31,9.58a19.8,19.8,0,0,1-.6,5.53c-.24,1.09,0,1.61,1.11,2A26.22,26.22,0,0,1,56.52,21c4.45,3.34,4.65,7.43.48,11.08a22.8,22.8,0,0,1-7.77,4.15c-1.21.41-1.73.74-1.41,2.25A21.93,21.93,0,0,1,48,48.2c-1,4.42-4,6.11-8.37,4.78a20.61,20.61,0,0,1-8-4.8c-1.17-1.09-1.91-1-3,0a22.77,22.77,0,0,1-6.22,4.17,11,11,0,0,1-3.49,1c-3.29.31-5.27-.89-6.37-4-1.27-3.58-1-7.24-.21-10.84.3-1.45-.13-1.87-1.38-2.31a21.85,21.85,0,0,1-8.78-5c-2.78-2.85-2.86-6-.1-8.84a20.32,20.32,0,0,1,8.39-4.94c1.42-.47,2.24-.87,1.77-2.79a19.86,19.86,0,0,1-.08-9.54c1-4.21,4-5.87,8.14-4.68a21.45,21.45,0,0,1,8.24,4.84c1.15,1,1.84,1.15,3,0A22,22,0,0,1,37.52,1.2C43.65-1.68,47.77.71,48.3,7.46,48.36,8.16,48.31,8.87,48.31,9.58ZM30.09,17.25c-4.49-1.51-6.77.9-8.6,4.65-3,6.2-3,3.56,0,9.65,1.59,3.26,3.54,5.31,7.7,5.05,3.88-.24,7.59.07,9.08-4.56a.51.51,0,0,1,.09-.16c3.33-6.47,3.25-3.84.14-10.13C36.68,18.14,34.49,15.81,30.09,17.25ZM14.42,44.41A13.06,13.06,0,0,0,14.65,47c.84,3.73,2.37,4.59,6,3.2a21.2,21.2,0,0,0,5.1-3.08c2.51-1.92,2.53-1.93.42-4.22C24.39,41,23.31,38.64,20,38.34c-5.25-.46-5.39-.71-5.54,4.77ZM57.26,26.68A3.63,3.63,0,0,0,55.85,24a22.3,22.3,0,0,0-8.22-4.48c-.8-.28-1,.13-1.22.75-.66,1.87-1.34,3.74-2.06,5.59a1.9,1.9,0,0,0-.06,1.48q1.11,2.86,2.15,5.76c.23.65.57,1,1.28.75,3.06-1.19,6.12-2.36,8.46-4.82A3.34,3.34,0,0,0,57.26,26.68ZM45.63,9.38A11.32,11.32,0,0,0,45.26,6c-.6-2.87-2.1-3.76-4.88-2.92a19.88,19.88,0,0,0-6.33,3.59c-2.18,1.69-2.18,1.68-.41,3.67a15.42,15.42,0,0,1,1.82,2.23,5.07,5.07,0,0,0,4,2.43c5.95,1,6.09,1,6.14-5.18ZM2.79,26.29A3.68,3.68,0,0,0,4,29.2c2.32,2.37,5.32,3.52,8.32,4.68.83.32,1.1-.18,1.34-.89.63-1.82,1.29-3.62,2-5.4a2.24,2.24,0,0,0-.1-1.83c-.69-1.79-1.36-3.59-2-5.41-.26-.77-.54-1-1.38-.73a23.63,23.63,0,0,0-7.62,4A4.36,4.36,0,0,0,2.79,26.29ZM18.45,2.79c-2.12-.1-3.1.72-3.64,2.83A20.49,20.49,0,0,0,15,14.77c.16.83.46,1.15,1.43.91,1.87-.44,3.78-.7,5.68-1a2.34,2.34,0,0,0,1.56-1q1.83-2.23,3.68-4.45c.32-.39.81-.76.21-1.27C24.75,5.62,21.89,3.35,18.45,2.79Zm27.17,41a19.82,19.82,0,0,0-.47-4.86c-.11-.89-.35-1.49-1.61-1.14a42.32,42.32,0,0,1-5.29.89,2.56,2.56,0,0,0-1.8,1c-1.19,1.5-2.44,3-3.69,4.44-.38.45-.82.83-.16,1.42,2.52,2.24,5.19,4.26,8.53,5,2.24.52,3.39-.26,4-2.46A11.3,11.3,0,0,0,45.62,43.79ZM26.56,39.15l3,3.4c.31.35.68.42,1,.06.89-1.09,2.06-2,2.64-3.46Zm6.6-24.94A15.91,15.91,0,0,0,30.56,11c-.37-.4-.68-.51-1.08,0a12.28,12.28,0,0,0-2.54,3.25Zm9.22,16.06c-1,1.76-2,3.42-2.93,5.08a.9.9,0,0,0-.06.37c5-.42,5.22-.69,3.28-5.12A2.17,2.17,0,0,0,42.38,30.27Zm-24.71.08c-2.41,4.09-2.25,4.48,2.12,5.36.3.06.59.24.95-.09Zm24.84-7c.52-1.53.93-2.79,1.39-4,.23-.63-.17-.86-.61-.93-1.22-.21-2.4-.85-3.88-.4ZM20.62,18c-1.54-.33-2.77.26-4,.5-.42.08-.67.36-.47.83.5,1.24.64,2.64,1.57,3.87Z"/><path class="cls-1" d="M30,32.18a5.48,5.48,0,1,1,5.65-5.35A5.52,5.52,0,0,1,30,32.18Z"/></g></g></svg>