<svg xmlns="http://www.w3.org/2000/svg" viewBox="0 0 59.79 60"><defs><style>.cls-1{fill:#d46fa3;}.cls-2{fill:#fdfcfd;}.cls-3{fill:#d570a4;}.cls-4{fill:#d571a5;}.cls-5{fill:#d673a6;}.cls-6{fill:#d778aa;}</style></defs><title>Asset 23</title><g id="Layer_2" data-name="Layer 2"><g id="Layer_1-2" data-name="Layer 1"><path class="cls-1" d="M5.35,0H54.43a.18.18,0,0,0,0,.07l0,0,.26.07a5.84,5.84,0,0,1,5.11,6q0,23.87,0,47.74a6.55,6.55,0,0,1-.15,1.47,5.85,5.85,0,0,1-4.92,4.49c-.09,0-.32-.1-.28.17H5.35l.06-.07,0,0-.26-.07a5.84,5.84,0,0,1-5.12-6V6.17A6.41,6.41,0,0,1,.16,4.66,5.85,5.85,0,0,1,5.07.17C5.16.15,5.39.27,5.35,0Zm22.7,33.53V32.4c0-1.85-1.13-2.6-2.86-1.91a6.47,6.47,0,0,0-.75.36,8.83,8.83,0,0,0-2.58,2.29,1.32,1.32,0,0,1-.4.38l-4.75,2.6a.37.37,0,0,1-.52-.07,34.38,34.38,0,0,0-3.77-3.15,19.23,19.23,0,0,1-2.84-2.57A5.32,5.32,0,0,1,8.84,24a10.66,10.66,0,0,1,2.72-3.36,33.42,33.42,0,0,1,10.43-6,19.35,19.35,0,0,1,6.29-1.22,9.42,9.42,0,0,1,4.47.81,3,3,0,0,1,1.73,3.31A7.77,7.77,0,0,1,32.2,21.9a15.49,15.49,0,0,1-9.86,4.68c-2.05.22-4,0-5.51-1.63a.3.3,0,0,0-.37-.1.34.34,0,0,0-.15.4A2.55,2.55,0,0,0,17,26.53a5.87,5.87,0,0,0,3.22,1.71,12.88,12.88,0,0,0,3.92.09A16.16,16.16,0,0,0,33,24.9,11.62,11.62,0,0,0,37.25,18a5.61,5.61,0,0,0-3.06-6.35A7.36,7.36,0,0,0,32.84,11a15.58,15.58,0,0,0-8.37-.41,35,35,0,0,0-14.95,7.2,16.26,16.26,0,0,0-4.58,5.57,7.19,7.19,0,0,0-.78,2.79A6,6,0,0,0,5.4,29.75a16.07,16.07,0,0,0,3.92,3.84c1.47,1.09,3,2.13,4.48,3.2.74.53.72.54-.08,1a24.38,24.38,0,0,0-5.94,4.07A6.31,6.31,0,0,0,6,45.12c-.55,2.82.92,4.63,3.77,4.62a8.69,8.69,0,0,0,7.84-11.67c-.12-.36-.08-.5.24-.67.69-.36,1.34-.77,2-1.15.12-.06.24-.2.45-.1a16.86,16.86,0,0,0-.53,2.52,8,8,0,0,0,1,5.22,1.88,1.88,0,0,0,1.91,1,2,2,0,0,0,1.56-1.11,24.22,24.22,0,0,0,1.5-3.07c.07-.15.08-.33.27-.45,0,.15,0,.27,0,.39a5.92,5.92,0,0,0,.23,2.61,1.23,1.23,0,0,0,2,.58,4.89,4.89,0,0,0,1.3-1.56,74.49,74.49,0,0,0,4.33-9c0-.13.06-.31.24-.37a1.17,1.17,0,0,1,.16.52A14.47,14.47,0,0,0,35,35.81c.23.51.74,1,.62,1.55a3.93,3.93,0,0,1-1,1.43c-.82,1-1.7,2-2.46,3A1.1,1.1,0,0,0,31.9,43a1.12,1.12,0,0,0,1,.52,1.92,1.92,0,0,0,.24,0A6.81,6.81,0,0,0,37.22,42a3.6,3.6,0,0,0,1.41-3.34,5.56,5.56,0,0,0-.44-1.75.65.65,0,0,1,.08-.71A41.42,41.42,0,0,0,41,31.66c.06-.11.08-.26.28-.31A11.76,11.76,0,0,0,42.45,35c.17.31.1.48-.15.7a9.33,9.33,0,0,0-2.09,2.51,4.86,4.86,0,0,0-.65,2,1.3,1.3,0,0,0,1.75,1.48,7.21,7.21,0,0,0,2.62-1.25c1.75-1.36,2.15-2.58,1.5-4.7-.08-.28,0-.42.24-.51a10.21,10.21,0,0,1,7.66.42,4.3,4.3,0,0,1,2,1.92,2.74,2.74,0,0,1-.88,3.72L54,41.6a.23.23,0,0,0,.18.42,1.17,1.17,0,0,0,.36-.08,3.43,3.43,0,0,0,2.21-2.54,4.65,4.65,0,0,0-1.39-4.23,7.37,7.37,0,0,0-5-2.2,10.87,10.87,0,0,0-5.24.89c-.15.07-.34.26-.47,0a9.26,9.26,0,0,1-1-2.24,6.86,6.86,0,0,1,.4-3.95c.2-.53,0-.77-.5-.89a4,4,0,0,0-1.2,0c-1.3.11-1.42.2-1.73,1.43-.59,2.39-2,4.38-3.18,6.49-.1.18-.22.23-.33,0a6.74,6.74,0,0,1-.58-1.51A6.9,6.9,0,0,1,37,29.21c.19-.51,0-.76-.48-.87a4.57,4.57,0,0,0-2.29.16.62.62,0,0,0-.43.49,9.68,9.68,0,0,1-.42,1.42c-1.46,3.4-2.9,6.81-4.57,10.12a.8.8,0,0,1-.4.48,3.55,3.55,0,0,1,0-1.26c.3-1.79.84-3.51,1.28-5.26a.84.84,0,0,0-.75-1.17A1.07,1.07,0,0,0,28.05,33.53Z"/><path class="cls-2" d="M28.05,33.53a1.07,1.07,0,0,1,.85-.21.84.84,0,0,1,.75,1.17c-.44,1.75-1,3.47-1.28,5.26a3.55,3.55,0,0,0,0,1.26.8.8,0,0,0,.4-.48c1.67-3.31,3.11-6.72,4.57-10.12A9.68,9.68,0,0,0,33.76,29a.62.62,0,0,1,.43-.49,4.57,4.57,0,0,1,2.29-.16c.53.11.67.36.48.87a6.9,6.9,0,0,0-.41,3.94,6.74,6.74,0,0,0,.58,1.51c.11.22.23.17.33,0,1.16-2.11,2.59-4.1,3.18-6.49.31-1.23.43-1.32,1.73-1.43a4,4,0,0,1,1.2,0c.55.12.7.36.5.89a6.86,6.86,0,0,0-.4,3.95,9.26,9.26,0,0,0,1,2.24c.13.27.32.08.47,0A10.87,10.87,0,0,1,50.35,33a7.37,7.37,0,0,1,5,2.2,4.65,4.65,0,0,1,1.39,4.23,3.43,3.43,0,0,1-2.21,2.54,1.17,1.17,0,0,1-.36.08A.23.23,0,0,1,54,41.6l.46-.31a2.74,2.74,0,0,0,.88-3.72,4.3,4.3,0,0,0-2-1.92,10.21,10.21,0,0,0-7.66-.42c-.29.09-.32.23-.24.51.65,2.12.25,3.34-1.5,4.7a7.21,7.21,0,0,1-2.62,1.25,1.3,1.3,0,0,1-1.75-1.48,4.86,4.86,0,0,1,.65-2,9.33,9.33,0,0,1,2.09-2.51c.25-.22.32-.39.15-.7a11.76,11.76,0,0,1-1.22-3.64c-.2,0-.22.2-.28.31a41.42,41.42,0,0,1-2.68,4.55.65.65,0,0,0-.08.71,5.56,5.56,0,0,1,.44,1.75A3.6,3.6,0,0,1,37.22,42a6.81,6.81,0,0,1-4.06,1.47,1.92,1.92,0,0,1-.24,0,1.12,1.12,0,0,1-1-.52,1.1,1.1,0,0,1,.23-1.17c.76-1,1.64-2,2.46-3a3.93,3.93,0,0,0,1-1.43c.12-.54-.39-1-.62-1.55a14.47,14.47,0,0,1-.72-2.29,1.17,1.17,0,0,0-.16-.52c-.18.06-.19.24-.24.37a74.49,74.49,0,0,1-4.33,9,4.89,4.89,0,0,1-1.3,1.56,1.23,1.23,0,0,1-2-.58,5.92,5.92,0,0,1-.23-2.61c0-.12,0-.24,0-.39-.19.12-.2.3-.27.45a24.22,24.22,0,0,1-1.5,3.07,2,2,0,0,1-1.56,1.11,1.88,1.88,0,0,1-1.91-1,8,8,0,0,1-1-5.22,16.86,16.86,0,0,1,.53-2.52c-.21-.1-.33,0-.45.1-.68.38-1.33.79-2,1.15-.32.17-.36.31-.24.67A8.69,8.69,0,0,1,9.72,49.74c-2.85,0-4.32-1.8-3.77-4.62a6.31,6.31,0,0,1,1.83-3.3,24.38,24.38,0,0,1,5.94-4.07c.8-.42.82-.43.08-1-1.49-1.07-3-2.11-4.48-3.2A16.07,16.07,0,0,1,5.4,29.75a6,6,0,0,1-1.24-3.57,7.19,7.19,0,0,1,.78-2.79,16.26,16.26,0,0,1,4.58-5.57,35,35,0,0,1,15-7.2,15.58,15.58,0,0,1,8.37.41,7.36,7.36,0,0,1,1.35.59A5.61,5.61,0,0,1,37.25,18,11.62,11.62,0,0,1,33,24.9a16.16,16.16,0,0,1-8.79,3.43,12.88,12.88,0,0,1-3.92-.09A5.87,5.87,0,0,1,17,26.53a2.55,2.55,0,0,1-.71-1.28.34.34,0,0,1,.15-.4.3.3,0,0,1,.37.1c1.52,1.61,3.46,1.85,5.51,1.63A15.49,15.49,0,0,0,32.2,21.9a7.77,7.77,0,0,0,2.28-4.31,3,3,0,0,0-1.73-3.31,9.42,9.42,0,0,0-4.47-.81A19.35,19.35,0,0,0,22,14.69a33.42,33.42,0,0,0-10.43,6A10.66,10.66,0,0,0,8.84,24a5.32,5.32,0,0,0,.74,6.32,19.23,19.23,0,0,0,2.84,2.57,34.38,34.38,0,0,1,3.77,3.15.37.37,0,0,0,.52.07l4.75-2.6a1.32,1.32,0,0,0,.4-.38,8.83,8.83,0,0,1,2.58-2.29,6.47,6.47,0,0,1,.75-.36c1.73-.69,2.84.06,2.86,1.91ZM16,40.24a6.34,6.34,0,0,0-.15-1.39c-.06-.33-.16-.43-.48-.23a27.84,27.84,0,0,0-4.23,3,6.32,6.32,0,0,0-1.69,2.28,3.64,3.64,0,0,0-.32,1.72,1.12,1.12,0,0,0,1.18,1.15,3.33,3.33,0,0,0,1.36-.23A6.8,6.8,0,0,0,16,40.24Zm6.35-.76a4.75,4.75,0,0,0,.28,1.87c.19.44.45.47.75.09a4.35,4.35,0,0,0,.46-.74c.54-1.06.93-2.19,1.36-3.29A25,25,0,0,0,26.6,33c.11-.58-.15-.78-.71-.57a3.06,3.06,0,0,0-1.37,1.07A10.09,10.09,0,0,0,22.36,39.48Zm21.18-2.3c0-.08,0-.27,0-.45s-.15-.32-.36-.12a6.39,6.39,0,0,0-1.76,3c0,.13-.09.29,0,.39s.26,0,.38-.06A2.81,2.81,0,0,0,43.54,37.18Zm-9.73,4.6c1.19,0,2.83-2,2.52-3A36.56,36.56,0,0,1,33.81,41.78Z"/><path class="cls-3" d="M16,40.24a6.8,6.8,0,0,1-4.33,6.29,3.33,3.33,0,0,1-1.36.23,1.12,1.12,0,0,1-1.18-1.15,3.64,3.64,0,0,1,.32-1.72,6.32,6.32,0,0,1,1.69-2.28,27.84,27.84,0,0,1,4.23-3c.32-.2.42-.1.48.23A6.34,6.34,0,0,1,16,40.24Z"/><path class="cls-4" d="M22.36,39.48a10.09,10.09,0,0,1,2.16-6,3.06,3.06,0,0,1,1.37-1.07c.56-.21.82,0,.71.57a25,25,0,0,1-1.39,4.46c-.43,1.1-.82,2.23-1.36,3.29a4.35,4.35,0,0,1-.46.74c-.3.38-.56.35-.75-.09A4.75,4.75,0,0,1,22.36,39.48Z"/><path class="cls-5" d="M43.54,37.18a2.81,2.81,0,0,1-1.75,2.74c-.12,0-.25.16-.38.06s-.08-.26,0-.39a6.39,6.39,0,0,1,1.76-3c.21-.2.31-.13.36.12S43.53,37.1,43.54,37.18Z"/><path class="cls-6" d="M33.81,41.78a36.56,36.56,0,0,0,2.52-3C36.64,39.79,35,41.76,33.81,41.78Z"/></g></g></svg>