<svg xmlns="http://www.w3.org/2000/svg" viewBox="0 0 60 58.5"><defs><style>.cls-1{fill:#470137;}.cls-2{fill:#fd60f4;}</style></defs><title>Asset 16</title><g id="Layer_2" data-name="Layer 2"><g id="Layer_1-2" data-name="Layer 1"><path class="cls-1" d="M60,9.4V49.1c-.11,0-.09.13-.1.21a10.61,10.61,0,0,1-9.12,9.09c-.07,0-.15,0-.18.1H9.4c0-.09-.11-.09-.18-.1A10.59,10.59,0,0,1,.1,49.28c0-.07,0-.15-.1-.18V9.4c.09,0,.09-.11.1-.18A10.31,10.31,0,0,1,2.74,3.5,10.43,10.43,0,0,1,9.22.1c.07,0,.15,0,.18-.1H50.6c0,.11.13.09.21.1a10.3,10.3,0,0,1,5.71,2.66A10.36,10.36,0,0,1,59.9,9.22C59.91,9.29,59.91,9.37,60,9.4ZM51.13,25.72q0-6.24,0-12.5c0-.36,0-.39-.39-.39H46c-.4,0-.43,0-.43.42q0,3.75,0,7.48c0,.25-.08.28-.3.26a13.59,13.59,0,0,0-4.71.36,10.26,10.26,0,0,0-7.36,6.55,11.23,11.23,0,0,0-.45,5.83,8.77,8.77,0,0,0,6.44,7.45,13.84,13.84,0,0,0,5.16.53,20.49,20.49,0,0,0,6.55-1.46c.34-.13.4-.22.37-.58-.08-1.27-.14-2.55-.14-3.82C51.13,32.47,51.13,29.1,51.13,25.72Zm-30.56-.84a2.73,2.73,0,0,0-.13-.25c-.62-1.25-1.28-2.47-2-3.67a57.18,57.18,0,0,1-2.88-5.48.74.74,0,0,0-.75-.48H9.3c-.12,0-.26,0-.34.1s0,.24.1.34q3.67,6.26,7.38,12.49a.42.42,0,0,1,0,.49q-3.75,6.13-7.5,12.3a2.07,2.07,0,0,0-.15.25c-.1.22,0,.31.2.31h5.6A.48.48,0,0,0,15,41c1.7-3.09,3.37-6.2,5-9.34,0-.07.05-.16.13-.21s.1.11.13.18c1.67,3,3.34,6,4.85,9.06a.87.87,0,0,0,.86.54h5.65c.16,0,.38.07.47-.07s-.06-.34-.16-.49L24.16,27.94a.3.3,0,0,1,0-.35q3.7-6.09,7.38-12.17c.06-.09.14-.18.07-.3S31.41,15,31.3,15c-1.64,0-3.29,0-4.93,0a.85.85,0,0,0-.91.54c-1.19,2.29-2.43,4.57-3.64,6.85C21.4,23.21,21,24,20.57,24.88Z"/><path class="cls-2" d="M51.13,25.72c0,3.38,0,6.75,0,10.13,0,1.27.06,2.55.14,3.82,0,.36,0,.45-.37.58a20.49,20.49,0,0,1-6.55,1.46,13.84,13.84,0,0,1-5.16-.53,8.77,8.77,0,0,1-6.44-7.45,11.23,11.23,0,0,1,.45-5.83,10.26,10.26,0,0,1,7.36-6.55A13.59,13.59,0,0,1,45.26,21c.22,0,.3,0,.3-.26q0-3.74,0-7.48c0-.39,0-.42.43-.42h4.75c.36,0,.39,0,.39.39Q51.14,19.48,51.13,25.72Zm-5.58,5.54V26c0-.19,0-.26-.23-.29a6.32,6.32,0,0,0-3.72.36,5.08,5.08,0,0,0-3,3,7.1,7.1,0,0,0-.13,4A4.64,4.64,0,0,0,40.33,36a7,7,0,0,0,5.08.79c.17,0,.14-.15.14-.26Z"/><path class="cls-2" d="M20.57,24.88c.43-.85.83-1.67,1.25-2.47,1.21-2.28,2.45-4.56,3.64-6.85a.85.85,0,0,1,.91-.54c1.64,0,3.29,0,4.93,0,.11,0,.22,0,.29.09s0,.21-.07.3q-3.68,6.07-7.38,12.17a.3.3,0,0,0,0,.35l7.76,12.73c.1.15.27.32.16.49s-.31.07-.47.07H26a.87.87,0,0,1-.86-.54c-1.51-3.08-3.18-6.07-4.85-9.06,0-.07-.05-.15-.13-.18s-.09.14-.13.21c-1.61,3.14-3.28,6.25-5,9.34a.48.48,0,0,1-.43.28H9c-.23,0-.3-.09-.2-.31a2.07,2.07,0,0,1,.15-.25l7.5-12.3a.42.42,0,0,0,0-.49q-3.71-6.24-7.38-12.49c-.06-.1-.18-.2-.1-.34s.22-.1.34-.1h5.53a.74.74,0,0,1,.75.48A57.18,57.18,0,0,0,18.46,21c.7,1.2,1.36,2.42,2,3.67A2.73,2.73,0,0,1,20.57,24.88Z"/><path class="cls-1" d="M45.55,31.26v5.27c0,.11,0,.24-.14.26A7,7,0,0,1,40.33,36a4.64,4.64,0,0,1-1.85-2.92,7.1,7.1,0,0,1,.13-4,5.08,5.08,0,0,1,3-3,6.32,6.32,0,0,1,3.72-.36c.19,0,.24.1.23.29Z"/></g></g></svg>